# xmcd
#
# Track frame offsets: 
#        150
#        27085
#        41298
#        60822
#        80399
#        99829
#        113420
#        125971
#        141106
#        167851
#        187359
#        209442
#
# Disc length: 3123 seconds
#
# Revision: 0
# Processed by: cddbd v1.5.1PL2 Copyright (c) Steve Scherf et al.
# Submitted via: ExactAudioCopy v0.95b1
#
DISCID=9c0c310c
DTITLE=Carrie Rodriguez - Seven Angels On A Bicycle
DYEAR=2006
DGENRE=Country
TTITLE0=Seven Angels On A Bicycle
TTITLE1=Never Gonna Be Your Bride
TTITLE2=Dirty Leather
TTITLE3=He Ain't Jesus
TTITLE4=Waterbound
TTITLE5='50S French Movie
TTITLE6=I Don't Want To Play House Anymore
TTITLE7=Before You Say Another Word
TTITLE8=Big Kiss
TTITLE9=Got Your Name On It
TTITLE10=He's Already Gone
TTITLE11=St. Peter's
EXTD=
EXTT0=
EXTT1=
EXTT2=
EXTT3=
EXTT4=
EXTT5=
EXTT6=
EXTT7=
EXTT8=
EXTT9=
EXTT10=
EXTT11=
PLAYORDER=
